<svg width="33" height="26" viewBox="0 0 33 26" fill="none" xmlns="http://www.w3.org/2000/svg">
<path d="M27.5092 0.717285H5.29127C4.02857 0.717285 2.8176 1.21567 1.92474 2.10281C1.03188 2.98995 0.530273 4.19316 0.530273 5.44776V21.216C0.530273 22.4706 1.03188 23.6738 1.92474 24.561C2.8176 25.4481 4.02857 25.9465 5.29127 25.9465H27.5092C28.7719 25.9465 29.9829 25.4481 30.8758 24.561C31.7686 23.6738 32.2702 22.4706 32.2702 21.216V5.44776C32.2702 4.19316 31.7686 2.98995 30.8758 2.10281C29.9829 1.21567 28.7719 0.717285 27.5092 0.717285ZM26.446 3.87094L16.4003 11.3609L6.35456 3.87094H26.446ZM27.5092 22.7928H5.29127C4.87037 22.7928 4.46671 22.6267 4.16909 22.331C3.87147 22.0353 3.70427 21.6342 3.70427 21.216V5.84197L15.4481 14.5933C15.7228 14.7981 16.0569 14.9087 16.4003 14.9087C16.7436 14.9087 17.0778 14.7981 17.3525 14.5933L29.0962 5.84197V21.216C29.0962 21.6342 28.929 22.0353 28.6314 22.331C28.3338 22.6267 27.9301 22.7928 27.5092 22.7928Z" fill="white"/>
</svg>
