<svg width="31" height="31" viewBox="0 0 31 31" fill="none" xmlns="http://www.w3.org/2000/svg">
<path fill-rule="evenodd" clip-rule="evenodd" d="M27.9614 15.6274C27.9614 18.81 26.6971 21.8623 24.4467 24.1127C22.1963 26.3632 19.144 27.6274 15.9614 27.6274C12.7788 27.6274 9.72658 26.3632 7.47614 24.1127C5.22571 21.8623 3.96143 18.81 3.96143 15.6274C3.96143 12.4448 5.22571 9.3926 7.47614 7.14216C9.72658 4.89172 12.7788 3.62744 15.9614 3.62744C19.144 3.62744 22.1963 4.89172 24.4467 7.14216C26.6971 9.3926 27.9614 12.4448 27.9614 15.6274ZM14.3714 11.0374C14.2669 11.1419 14.1429 11.2248 14.0063 11.2814C13.8698 11.3379 13.7235 11.3671 13.5757 11.3671C13.4279 11.3671 13.2816 11.3379 13.145 11.2814C13.0085 11.2248 12.8844 11.1419 12.7799 11.0374C12.6754 10.9329 12.5925 10.8089 12.536 10.6723C12.4794 10.5358 12.4503 10.3895 12.4503 10.2417C12.4503 10.0939 12.4794 9.94757 12.536 9.81103C12.5925 9.6745 12.6754 9.55044 12.7799 9.44594C13.2692 8.95656 13.8648 8.58662 14.5203 8.36489C15.1759 8.14315 15.8737 8.0756 16.5596 8.16747C17.2455 8.25935 17.901 8.50818 18.4751 8.89462C19.0492 9.28106 19.5264 9.7947 19.8696 10.3956C20.2129 10.9965 20.4129 11.6685 20.4542 12.3593C20.4955 13.0501 20.3768 13.7411 20.1076 14.3786C19.8383 15.0161 19.4257 15.5829 18.9017 16.0349C18.3777 16.4869 17.7565 16.8121 17.0864 16.9849V17.5024C17.0864 17.8008 16.9679 18.087 16.7569 18.2979C16.5459 18.5089 16.2598 18.6274 15.9614 18.6274C15.6631 18.6274 15.3769 18.5089 15.1659 18.2979C14.955 18.087 14.8364 17.8008 14.8364 17.5024V16.7524C14.8364 15.6724 15.6914 14.9944 16.4579 14.8219C16.7985 14.7453 17.1165 14.5905 17.3869 14.3698C17.6573 14.149 17.8727 13.8684 18.0159 13.5501C18.1591 13.2317 18.2263 12.8844 18.2122 12.5357C18.198 12.1869 18.1029 11.8462 17.9344 11.5405C17.7659 11.2348 17.5285 10.9725 17.2411 10.7744C16.9538 10.5763 16.6242 10.4477 16.2786 10.3989C15.9329 10.3501 15.5807 10.3824 15.2497 10.4932C14.9187 10.604 14.618 10.7904 14.3714 11.0374ZM15.9614 23.1274C16.3592 23.1274 16.7408 22.9694 17.0221 22.6881C17.3034 22.4068 17.4614 22.0253 17.4614 21.6274C17.4614 21.2296 17.3034 20.8481 17.0221 20.5668C16.7408 20.2855 16.3592 20.1274 15.9614 20.1274C15.5636 20.1274 15.1821 20.2855 14.9008 20.5668C14.6195 20.8481 14.4614 21.2296 14.4614 21.6274C14.4614 22.0253 14.6195 22.4068 14.9008 22.6881C15.1821 22.9694 15.5636 23.1274 15.9614 23.1274Z" fill="#C2C2C2"/>
</svg>
