<svg width="36" height="36" viewBox="0 0 36 36" fill="none" xmlns="http://www.w3.org/2000/svg">
<path d="M2.71086 20.0821H4.46066V32.3303C4.46066 34.2603 6.03024 35.8298 7.96027 35.8298H28.9579C30.888 35.8298 32.4575 34.2603 32.4575 32.3303V20.0821H34.2073C34.5534 20.082 34.8916 19.9793 35.1793 19.7871C35.467 19.5948 35.6912 19.3216 35.8236 19.0019C35.956 18.6822 35.9907 18.3304 35.9232 17.9911C35.8557 17.6517 35.6891 17.34 35.4445 17.0953L19.6962 1.3475C19.5339 1.18487 19.341 1.05585 19.1287 0.967816C18.9165 0.879784 18.6889 0.834473 18.4591 0.834473C18.2293 0.834473 18.0017 0.879784 17.7895 0.967816C17.5772 1.05585 17.3844 1.18487 17.222 1.3475L1.47375 17.0953C1.22911 17.34 1.06251 17.6517 0.995028 17.9911C0.927542 18.3304 0.962194 18.6822 1.0946 19.0019C1.22701 19.3216 1.45123 19.5948 1.73891 19.7871C2.0266 19.9793 2.36483 20.082 2.71086 20.0821ZM14.9595 32.3303V23.5816H21.9587V32.3303H14.9595ZM18.4591 5.05872L28.9579 15.5572V23.5816L28.9597 32.3303H25.4583V23.5816C25.4583 21.6516 23.8887 20.0821 21.9587 20.0821H14.9595C13.0295 20.0821 11.4599 21.6516 11.4599 23.5816V32.3303H7.96027V15.5572L18.4591 5.05872Z" fill="white"/>
</svg>
