<svg width="32" height="32" viewBox="0 0 32 32" fill="none" xmlns="http://www.w3.org/2000/svg">
<path d="M21.013 16.2972V16.2959C21.0129 15.1034 20.6103 13.9479 19.8737 13.0261C19.1372 12.1044 18.1122 11.4734 16.9734 11.2408C15.8347 11.0081 14.6526 11.1882 13.6286 11.7503C12.6046 12.3123 11.8021 13.2217 11.3577 14.3233C10.9133 15.425 10.8546 16.6508 11.1915 17.7919C11.5285 18.933 12.2403 19.9189 13.2056 20.5815C14.1709 21.2441 15.3301 21.5424 16.4855 21.4257C17.641 21.309 18.7214 20.7844 19.5425 19.9413C20.0084 19.4788 20.3787 18.9245 20.6314 18.3117C20.884 17.6989 21.0138 17.04 21.013 16.3745L21.0117 16.2933V16.2972H21.013ZM23.7231 16.2972C23.7171 18.125 23.0945 19.8942 21.9614 21.3037C20.8283 22.7132 19.2547 23.6758 17.5083 24.0279C15.7619 24.3799 13.9507 24.0996 12.3828 23.2346C10.815 22.3696 9.58754 20.9733 8.90923 19.2835C8.23092 17.5936 8.14372 15.7146 8.66247 13.9661C9.18122 12.2177 10.2739 10.7079 11.7545 9.69364C13.2351 8.67941 15.0121 8.22343 16.7832 8.40331C18.5543 8.58319 20.2099 9.3878 21.4684 10.6802C22.1831 11.3924 22.7511 12.245 23.1386 13.1871C23.5262 14.1292 23.7253 15.1417 23.7243 16.1645L23.7231 16.3049V16.2985V16.2972ZM25.8397 8.04248V8.04506C25.8399 8.47436 25.6951 8.89043 25.43 9.22237C25.1649 9.55432 24.7959 9.78159 24.386 9.86547C23.976 9.94935 23.5505 9.88464 23.1818 9.68238C22.8131 9.48012 22.524 9.15281 22.364 8.75623C22.2039 8.35966 22.1827 7.91834 22.3039 7.50749C22.4251 7.09664 22.6813 6.74168 23.0288 6.50308C23.3763 6.26448 23.7936 6.15701 24.2096 6.19899C24.6256 6.24096 25.0146 6.42979 25.3102 6.73328C25.6314 7.05671 25.8309 7.50772 25.8309 8.0064V8.04377V8.04248H25.8397ZM16.003 3.60974L14.5037 3.59943C13.5953 3.59256 12.9057 3.59256 12.4347 3.59943C11.9638 3.6063 11.3331 3.62649 10.5427 3.66C9.8087 3.68577 9.11235 3.7605 8.43106 3.87905L8.52266 3.86617C7.98942 3.95637 7.5164 4.08523 7.06346 4.25661L7.11742 4.23857C6.47754 4.50275 5.89564 4.89585 5.40605 5.39469C4.91647 5.89352 4.52909 6.488 4.26679 7.14305L4.25424 7.17784C4.09319 7.63054 3.97389 8.09777 3.89791 8.57338L3.89164 8.62106C3.78004 9.29815 3.71339 9.98225 3.69214 10.6686L3.69089 10.6957C3.65827 11.5084 3.63861 12.1561 3.63192 12.6389C3.62523 13.1217 3.62523 13.83 3.63192 14.7638C3.63861 15.6976 3.64196 16.2108 3.64196 16.3036C3.64196 16.3964 3.63861 16.9097 3.63192 17.8435C3.62523 18.7773 3.62523 19.4856 3.63192 19.9684C3.63861 20.4512 3.65827 21.0989 3.69089 21.9116C3.71598 22.6654 3.78875 23.3806 3.90418 24.0803L3.89164 23.9862C3.97946 24.5338 4.10493 25.0196 4.2718 25.4848L4.25424 25.4294C4.51147 26.0866 4.89422 26.6842 5.37993 27.187C5.86564 27.6898 6.44447 28.0877 7.08228 28.3571L7.11616 28.37C7.51515 28.5233 7.98816 28.6522 8.47498 28.7359L8.5214 28.7424C9.10985 28.848 9.80619 28.9228 10.5138 28.9473L10.5402 28.9485C11.3315 28.982 11.9621 29.0022 12.4322 29.0091C12.9023 29.016 13.592 29.016 14.5012 29.0091L15.9918 28.9782L17.4911 28.9885C18.3995 28.9954 19.0891 28.9954 19.5601 28.9885C20.031 28.9816 20.6617 28.9614 21.4521 28.9279C22.1861 28.9022 22.8825 28.8274 23.5637 28.7089L23.4721 28.7218C24.0054 28.6316 24.4784 28.5027 24.9313 28.3313L24.8774 28.3494C25.5173 28.0852 26.0992 27.6921 26.5887 27.1932C27.0783 26.6944 27.4657 26.0999 27.728 25.4449L27.7406 25.4101C27.8899 25.0003 28.0153 24.5145 28.0969 24.0145L28.1032 23.9669C28.206 23.3625 28.2788 22.6473 28.3027 21.9206L28.3039 21.8935C28.3365 21.0809 28.3562 20.4331 28.3629 19.9503C28.3696 19.4675 28.3696 18.7592 28.3629 17.8254C28.3562 16.8917 28.3528 16.3784 28.3528 16.2856C28.3528 16.1928 28.3562 15.6795 28.3629 14.7457C28.3696 13.8119 28.3696 13.1036 28.3629 12.6208C28.3562 12.138 28.3365 11.4903 28.3039 10.6776C28.2788 9.92382 28.206 9.20866 28.0906 8.50895L28.1032 8.60302C28.0236 8.0921 27.8963 7.59024 27.723 7.10439L27.7406 7.1598C27.4833 6.50263 27.1006 5.90501 26.6149 5.40219C26.1292 4.89937 25.5503 4.50153 24.9125 4.23213L24.8786 4.21924C24.4379 4.05385 23.9829 3.93132 23.5198 3.85328L23.4734 3.84684C22.8145 3.73229 22.1489 3.66383 21.481 3.64195L21.4546 3.64067C20.6633 3.60716 20.0327 3.58697 19.5626 3.5801C19.0925 3.57323 18.4028 3.57323 17.4936 3.5801L16.003 3.60974ZM31.0504 16.2972C31.0504 19.3709 31.0169 21.4984 30.95 22.6796C31.0093 23.8766 30.8231 25.0732 30.4034 26.1916C29.9836 27.31 29.3398 28.3254 28.5135 29.1719C27.6872 30.0184 26.697 30.6772 25.607 31.1056C24.517 31.5339 23.3515 31.7223 22.1861 31.6584L22.2062 31.6597C21.0561 31.7285 18.9846 31.7628 15.9918 31.7628C12.9989 31.7628 10.9275 31.7285 9.77733 31.6597C8.61176 31.7206 7.44673 31.5294 6.35774 31.0983C5.26875 30.6672 4.2801 30.0059 3.45585 29.1574C2.63161 28.3088 1.99016 27.2918 1.57308 26.1723C1.156 25.0528 0.972588 23.8559 1.03473 22.6589L1.03348 22.6796C0.966564 21.4984 0.933105 19.3709 0.933105 16.2972C0.933105 13.2235 0.966564 11.096 1.03348 9.9148C0.974173 8.71773 1.16042 7.52121 1.58016 6.40279C1.9999 5.28437 2.64375 4.269 3.47001 3.42247C4.29627 2.57595 5.28648 1.91717 6.37649 1.48881C7.4665 1.06046 8.63198 0.872092 9.79741 0.935919L9.77733 0.93463C10.9275 0.865905 12.9989 0.831543 15.9918 0.831543C18.9846 0.831543 21.0561 0.865905 22.2062 0.93463C23.3717 0.87372 24.5368 1.065 25.6258 1.49608C26.7148 1.92717 27.7034 2.58843 28.5277 3.43701C29.3519 4.2856 29.9933 5.30258 30.4104 6.42205C30.8275 7.54152 31.0109 8.7385 30.9488 9.93542L30.95 9.9148C31.0169 11.0951 31.0504 13.2226 31.0504 16.2972Z" fill="white"/>
</svg>
