<svg width="51" height="51" viewBox="0 0 51 51" fill="none" xmlns="http://www.w3.org/2000/svg">
<path fill-rule="evenodd" clip-rule="evenodd" d="M45.9 25.5001C45.9 30.9105 43.7507 36.0993 39.925 39.9251C36.0992 43.7508 30.9104 45.9001 25.5 45.9001C20.0896 45.9001 14.9007 43.7508 11.075 39.9251C7.24926 36.0993 5.09998 30.9105 5.09998 25.5001C5.09998 20.0897 7.24926 14.9009 11.075 11.0751C14.9007 7.24938 20.0896 5.1001 25.5 5.1001C30.9104 5.1001 36.0992 7.24938 39.925 11.0751C43.7507 14.9009 45.9 20.0897 45.9 25.5001ZM22.797 17.6971C22.6193 17.8747 22.4084 18.0157 22.1763 18.1118C21.9442 18.208 21.6954 18.2574 21.4442 18.2574C21.193 18.2574 20.9442 18.208 20.7121 18.1118C20.48 18.0157 20.2691 17.8747 20.0914 17.6971C19.9138 17.5194 19.7729 17.3085 19.6767 17.0764C19.5806 16.8443 19.5311 16.5956 19.5311 16.3443C19.5311 16.0931 19.5806 15.8443 19.6767 15.6122C19.7729 15.3801 19.9138 15.1692 20.0914 14.9915C20.9232 14.1596 21.9357 13.5307 23.0501 13.1538C24.1645 12.7768 25.3509 12.662 26.5169 12.8182C27.6829 12.9743 28.7972 13.3974 29.7732 14.0543C30.7491 14.7113 31.5604 15.5844 32.1439 16.606C32.7274 17.6275 33.0675 18.7698 33.1377 19.9442C33.2078 21.1185 33.0062 22.2933 32.5484 23.377C32.0907 24.4607 31.3892 25.4243 30.4984 26.1928C29.6076 26.9613 28.5516 27.5139 27.4125 27.8078V28.6876C27.4125 29.1948 27.211 29.6813 26.8523 30.0399C26.4937 30.3986 26.0072 30.6001 25.5 30.6001C24.9927 30.6001 24.5063 30.3986 24.1476 30.0399C23.789 29.6813 23.5875 29.1948 23.5875 28.6876V27.4126C23.5875 25.5766 25.041 24.424 26.344 24.1307C26.923 24.0005 27.4637 23.7373 27.9233 23.362C28.383 22.9868 28.7491 22.5097 28.9926 21.9685C29.2361 21.4274 29.3503 20.837 29.3263 20.2441C29.3022 19.6511 29.1405 19.0719 28.854 18.5523C28.5675 18.0326 28.1641 17.5867 27.6755 17.2499C27.1869 16.9131 26.6267 16.6946 26.0391 16.6116C25.4516 16.5286 24.8527 16.5835 24.29 16.7719C23.7273 16.9603 23.2162 17.2771 22.797 17.6971ZM25.5 38.2501C26.1763 38.2501 26.8249 37.9814 27.3031 37.5032C27.7813 37.025 28.05 36.3764 28.05 35.7001C28.05 35.0238 27.7813 34.3752 27.3031 33.897C26.8249 33.4188 26.1763 33.1501 25.5 33.1501C24.8237 33.1501 24.1751 33.4188 23.6969 33.897C23.2186 34.3752 22.95 35.0238 22.95 35.7001C22.95 36.3764 23.2186 37.025 23.6969 37.5032C24.1751 37.9814 24.8237 38.2501 25.5 38.2501Z" fill="#B50C2F"/>
</svg>
