<svg width="31" height="31" viewBox="0 0 31 31" fill="none" xmlns="http://www.w3.org/2000/svg">
<path d="M26.4094 27.354H28.425L22.8 13.2915H20.5969L14.9719 27.354H16.9875L18.4875 23.604H24.9094L26.4094 27.354ZM19.2375 21.729L21.6938 15.579L24.1594 21.729H19.2375ZM17.175 6.729V4.854H10.6125V2.0415H8.73755V4.854H2.17505V6.729H12.2438C11.7244 8.87154 10.6988 10.8583 9.25317 12.5228C8.3108 11.3542 7.58385 10.0272 7.1063 8.604H5.13755C5.72768 10.5133 6.68285 12.2899 7.95005 13.8353C6.54953 15.1937 4.90932 16.2809 3.11255 17.0415L3.81567 18.7853C5.83465 17.9328 7.67345 16.7048 9.23442 15.1665C10.7671 16.7258 12.6056 17.9515 14.6344 18.7665L15.3 17.0415C13.4929 16.343 11.8563 15.2657 10.5 13.8821C12.295 11.8365 13.5573 9.37944 14.175 6.729H17.175Z" fill="#0071C4"/>
</svg>
